<svg width="47" height="47" viewBox="0 0 47 47" fill="none" xmlns="http://www.w3.org/2000/svg">
<path d="M23.5 0C26.6163 0 29.605 1.23794 31.8085 3.44149C34.0121 5.64505 35.25 8.63371 35.25 11.75C35.25 14.8663 34.0121 17.855 31.8085 20.0585C29.605 22.2621 26.6163 23.5 23.5 23.5C20.3837 23.5 17.395 22.2621 15.1915 20.0585C12.9879 17.855 11.75 14.8663 11.75 11.75C11.75 8.63371 12.9879 5.64505 15.1915 3.44149C17.395 1.23794 20.3837 0 23.5 0ZM23.5 29.375C36.4837 29.375 47 34.6331 47 41.125V47H0V41.125C0 34.6331 10.5162 29.375 23.5 29.375Z" fill="#333333"/>
</svg>
