<svg width="54" height="54" viewBox="0 0 54 54" fill="none" xmlns="http://www.w3.org/2000/svg">
<path d="M49.8 54L30.9 35.1C29.4 36.3 27.675 37.25 25.725 37.95C23.775 38.65 21.7 39 19.5 39C14.05 39 9.438 37.112 5.664 33.336C1.89 29.56 0.00200159 24.948 1.5873e-06 19.5C-0.00199841 14.052 1.886 9.44 5.664 5.664C9.442 1.888 14.054 0 19.5 0C24.946 0 29.559 1.888 33.339 5.664C37.119 9.44 39.006 14.052 39 19.5C39 21.7 38.65 23.775 37.95 25.725C37.25 27.675 36.3 29.4 35.1 30.9L54 49.8L49.8 54ZM19.5 33C23.25 33 26.438 31.688 29.064 29.064C31.69 26.44 33.002 23.252 33 19.5C32.998 15.748 31.686 12.561 29.064 9.939C26.442 7.317 23.254 6.004 19.5 6C15.746 5.996 12.559 7.309 9.939 9.939C7.319 12.569 6.006 15.756 6 19.5C5.994 23.244 7.307 26.432 9.939 29.064C12.571 31.696 15.758 33.008 19.5 33Z" fill="#333333" fill-opacity="0.5"/>
</svg>
