<svg width="52" height="52" viewBox="0 0 52 52" fill="none" xmlns="http://www.w3.org/2000/svg">
<path d="M43.3346 41.889C43.0797 41.8892 42.8294 41.8219 42.6089 41.6941C42.3885 41.5662 42.2058 41.3823 42.0793 41.161L35.9621 31.0846C35.5663 30.3927 35.7209 29.526 36.4128 29.1288L43.5743 24.7954C43.7997 24.6669 44.2908 24.5557 44.5335 24.5557C45.0361 24.5557 45.5041 24.8417 45.7699 25.3082L50.2578 32.7067L50.4947 35.9307C50.8905 36.6226 49.1109 37.6409 48.4176 38.0367L44.0481 41.6983C43.8308 41.8227 43.5849 41.8884 43.3346 41.889Z" fill="#3E721D"/>
<path d="M33.2223 46.2224C32.8392 46.2224 32.4718 46.0702 32.2009 45.7993C31.93 45.5284 31.7778 45.161 31.7778 44.7779V36.1112C31.7778 35.7281 31.93 35.3607 32.2009 35.0899C32.4718 34.819 32.8392 34.6668 33.2223 34.6668H47.6667C50.3389 34.6668 49.9056 32.0942 49.9056 32.0942C49.9056 32.0942 50.3779 32.906 50.4473 33.0346C50.9196 33.9215 51.2331 35.2763 50.4964 36.6529L46.0345 45.4958C45.8251 45.9132 45.3253 46.2224 44.7778 46.2224H33.2223Z" fill="#77B255"/>
<path d="M31.7778 50.5554C31.3947 50.5553 31.0274 50.4031 30.7566 50.1322L22.0899 41.4655C21.8191 41.1946 21.667 40.8273 21.667 40.4443C21.667 40.0613 21.8191 39.6939 22.0899 39.4231L30.7566 30.7564C30.9586 30.5545 31.2159 30.4169 31.4961 30.3612C31.7762 30.3055 32.0666 30.3341 32.3305 30.4434C32.5944 30.5527 32.82 30.7378 32.9787 30.9753C33.1374 31.2128 33.2222 31.492 33.2222 31.7776V49.111C33.2222 49.4941 33.0701 49.8615 32.7992 50.1323C32.5283 50.4032 32.1609 50.5554 31.7778 50.5554Z" fill="#77B255"/>
<path d="M29.7454 4.76499C29.8616 4.99208 29.9156 5.24589 29.9019 5.50062C29.8882 5.75535 29.8073 6.0019 29.6674 6.21521L23.4664 16.2397C23.0287 16.9084 22.1866 17.1627 21.5193 16.725L14.4068 12.3137C14.1445 12.1091 13.9238 11.8561 13.7568 11.5683C13.6461 11.3393 13.5978 11.0852 13.6168 10.8315C13.6359 10.5779 13.7215 10.3338 13.8652 10.1239L18.418 2.76588L21.1827 1.09177C21.6204 0.422991 23.3349 1.54677 24.0037 1.98588L29.2485 4.2161C29.459 4.35279 29.6302 4.54197 29.7454 4.76499Z" fill="#3E721D"/>
<path d="M38.1967 11.8083C38.283 11.9774 38.3352 12.1618 38.3502 12.3511C38.3652 12.5403 38.3427 12.7307 38.2841 12.9112C38.2255 13.0918 38.1318 13.2591 38.0085 13.4034C37.8852 13.5478 37.7346 13.6664 37.5654 13.7525L29.842 17.6872C29.5008 17.8606 29.1047 17.8916 28.7407 17.7732C28.3767 17.6549 28.0746 17.3969 27.9007 17.0559L21.34 4.18595C20.1281 1.80406 18.0322 3.35828 18.0322 3.35828C18.0322 3.35828 18.5407 2.56961 18.6244 2.44828C19.2008 1.62495 20.2639 0.732279 21.8253 0.762612L31.7328 0.722168C32.2008 0.722168 32.702 1.02406 32.9519 1.51228L38.1967 11.8083Z" fill="#77B255"/>
<path d="M42.7135 11.1295C42.887 11.4705 42.9182 11.8663 42.8002 12.2302L39.0143 23.8883C38.8959 24.2526 38.6376 24.555 38.2963 24.7289C37.955 24.9028 37.5586 24.934 37.1943 24.8156L25.5376 21.0269C25.2655 20.9391 25.0255 20.7726 24.8481 20.5484C24.6707 20.3242 24.5638 20.0523 24.541 19.7673C24.5188 19.4825 24.5817 19.1974 24.7215 18.9483C24.8614 18.6991 25.072 18.4971 25.3267 18.3677L40.7707 10.4983C40.9396 10.4114 41.124 10.3588 41.3133 10.3435C41.5026 10.3283 41.693 10.3506 41.8736 10.4093C42.0542 10.468 42.2214 10.5618 42.3656 10.6854C42.5097 10.8091 42.628 10.96 42.7135 11.1295Z" fill="#77B255"/>
<path d="M4.87497 35.4498C5.00751 35.2324 5.19515 35.0539 5.41888 34.9324C5.64261 34.8109 5.89448 34.7507 6.14897 34.7579L17.9371 34.7651C18.7359 34.7897 19.3945 35.3718 19.3743 36.1691L19.3541 44.5397C19.3469 44.7997 19.1865 45.2792 19.0609 45.4843C18.924 45.6989 18.7329 45.8734 18.5069 45.9903C18.2809 46.1073 18.028 46.1624 17.7739 46.1502L9.12164 46.1387L6.24286 44.6668C5.44697 44.6422 5.50186 42.594 5.52208 41.7981L4.66553 36.159C4.67262 35.9084 4.7448 35.664 4.87497 35.4498Z" fill="#3E721D"/>
<path d="M6.42912 24.5584C6.52766 24.3963 6.65716 24.2552 6.81023 24.1431C6.9633 24.0311 7.13694 23.9503 7.32124 23.9054C7.50553 23.8604 7.69687 23.8522 7.88433 23.8813C8.07179 23.9103 8.2517 23.9759 8.41379 24.0745L15.818 28.5797C15.9801 28.6782 16.1212 28.8077 16.2332 28.9608C16.3453 29.1139 16.4261 29.2875 16.471 29.4718C16.5159 29.6561 16.5241 29.8474 16.4951 30.0349C16.4661 30.2224 16.4004 30.4023 16.3019 30.5644L8.79513 42.9043C7.40846 45.1865 9.83079 46.1543 9.83079 46.1543C9.83079 46.1543 8.8919 46.134 8.74601 46.1254C7.74068 46.0705 6.4219 45.6328 5.62746 44.2895L0.389901 35.8828C0.142901 35.4856 0.138567 34.8977 0.423123 34.4297L6.42912 24.5584Z" fill="#77B255"/>
<path d="M3.47692 21.0729C3.67336 20.7493 3.9897 20.5124 4.36958 20.4171L16.279 17.5195C16.651 17.429 17.0437 17.4897 17.3709 17.6885C17.6981 17.8873 17.933 18.2079 18.0239 18.5798L20.9229 30.4878C20.9892 30.7652 20.9721 31.0561 20.8736 31.3238C20.7752 31.5915 20.5998 31.8242 20.3695 31.9926C20.1393 32.1609 19.8644 32.2575 19.5794 32.2702C19.2944 32.2828 19.0121 32.211 18.7678 32.0637L3.96225 23.0575C3.80004 22.9591 3.65881 22.8297 3.54663 22.6767C3.43444 22.5237 3.3535 22.3501 3.30843 22.1658C3.26336 21.9815 3.25505 21.7901 3.28395 21.6026C3.31286 21.415 3.37843 21.2351 3.47692 21.0729Z" fill="#77B255"/>
</svg>
